<svg xmlns="http://www.w3.org/2000/svg" viewBox="0 0 330.96 37.03"><defs><style>.cls-1{fill:#f1361d;}</style></defs><title>Asset 9</title><g id="Layer_2" data-name="Layer 2"><g id="Layer_1-2" data-name="Layer 1"><path class="cls-1" d="M35.47,1.09a32.39,32.39,0,0,0-11.17,2,.57.57,0,0,0-.33.57l.6,4a.32.32,0,0,0,.14.22.3.3,0,0,0,.26,0,49,49,0,0,1,5-1.16c4-.68,6.22-.5,7.34.56A2.82,2.82,0,0,1,38,9.87l-.1.76s-4.85.65-8,1.24a18,18,0,0,0-6.71,2.27c-3.28,2.14-4.09,6.32-3.46,9.3.55,2.61,2.85,5.73,10.7,5.73H31c12,0,13.57-2.05,14.1-6.39L45.81,17l.94-7.62c.29-2.35-.14-4.15-1.34-5.48C43.71,2,40.46,1.09,35.47,1.09Zm1.77,14.73S37,18.08,37,18.11l-.71,5.71-.1,0a12,12,0,0,1-3.43.42h0a5.06,5.06,0,0,1-3.6-1.07,3.52,3.52,0,0,1-.93-2.6c0-2.28,1.36-3.71,4.14-4.23s5-.76,5-.76Z"/><path class="cls-1" d="M144.21,1.1h-.88c-6.36,0-10.68,1.83-12.83,5.43-1.73,2.87-2.56,12.6-2.57,12.7a10.29,10.29,0,0,0,.48,4.58c1.79,4.77,8,5.41,11.57,5.37,6.41,0,10.74-1.83,12.85-5.34.65-1.08,1.6-4.1,2.48-12.29l0-.29a10.51,10.51,0,0,0-.31-4.4C153.62,2.3,148.37,1.22,144.21,1.1Zm1.47,17.76,0,.14a6.14,6.14,0,0,1-1.46,3.62,4.61,4.61,0,0,1-3.09,1.21,5,5,0,0,1-2.87-.51,3.74,3.74,0,0,1-1.74-2.9c-.06-.77.63-5.53,1-8.09l.17-1.18a5.61,5.61,0,0,1,1.9-3.69,4.85,4.85,0,0,1,3-1,4.66,4.66,0,0,1,2.64.62A3.52,3.52,0,0,1,146.68,10C146.7,10.5,146.36,13.59,145.68,18.86Z"/><path class="cls-1" d="M127.06,1.29h-3.81A6,6,0,0,0,118.07,4l-9.66,12,.26-.72,1.7-13.62a.28.28,0,0,0-.08-.25.3.3,0,0,0-.24-.11h-7.94a.48.48,0,0,0-.45.39L98.34,28.23a.31.31,0,0,0,.07.24.36.36,0,0,0,.23.08h4.15a6.05,6.05,0,0,0,5.14-2.75l9.44-12.27-.31.76-1.72,13.9a.35.35,0,0,0,.07.25.35.35,0,0,0,.26.11h7.93a.48.48,0,0,0,.45-.4l3.3-26.56a.26.26,0,0,0-.06-.23A.33.33,0,0,0,127.06,1.29Z"/><path class="cls-1" d="M184.16,1.09l-8.09,1a.57.57,0,0,0-.47.46l-1.15,9.29-.06.38h-7.73L168,1.39a.31.31,0,0,0-.07-.24.3.3,0,0,0-.23-.06l-8.09,1a.57.57,0,0,0-.47.46L156,28.19a.32.32,0,0,0,.08.25.3.3,0,0,0,.24.11h7.94a.48.48,0,0,0,.46-.4L166,17.88V17.8h7.74l-1.29,10.39a.32.32,0,0,0,.08.25.3.3,0,0,0,.24.11h2c3.66,0,6.35-.44,6.92-4.67l2.81-22.49a.28.28,0,0,0-.06-.24A.29.29,0,0,0,184.16,1.09Z"/><path class="cls-1" d="M98.65,7.14l.68-5.51a.31.31,0,0,0-.08-.25A.32.32,0,0,0,99,1.27H68.91a2.09,2.09,0,0,0-1.44.67L59.06,12.25h-1.2L59.21,1.43a.26.26,0,0,0-.07-.23.27.27,0,0,0-.23-.07l-8.09,1a.56.56,0,0,0-.47.46L47.16,28.2a.27.27,0,0,0,.07.25.33.33,0,0,0,.25.11h8a.49.49,0,0,0,.45-.4l1.29-10.34h1.24l5.77,10.35a.85.85,0,0,0,.65.39h8.61c.14,0,.28-.07.16-.31L65.77,15.11l6.54-7.57h9.45L79.19,28.2a.27.27,0,0,0,.07.25.33.33,0,0,0,.25.11h7.94a.47.47,0,0,0,.45-.4L90.43,7.54h7.76A.48.48,0,0,0,98.65,7.14Z"/><path class="cls-1" d="M18.76,1.28H11.17a2,2,0,0,0-1.38.63L.31,13.43a1.24,1.24,0,0,0-.14,1.45l7.37,13a1.45,1.45,0,0,0,1.19.69H15.3c.47,0,.7-.3.47-.67l-7.39-13,10.7-13C19.36,1.54,19.22,1.28,18.76,1.28Z"/><path class="cls-1" d="M204.85,15,197.48,2a1.47,1.47,0,0,0-1.19-.69h-6.58c-.46,0-.69.3-.47.67l7.4,13L185.94,28c-.29.32-.15.59.32.59h7.59a2,2,0,0,0,1.37-.63l9.49-11.52A1.26,1.26,0,0,0,204.85,15Z"/><path d="M216.12,28.2,219.51.62a.75.75,0,0,1,.74-.62h21.92a.56.56,0,0,1,.55.62l-3.4,27.58a.67.67,0,0,1-.66.62h-2.61a.58.58,0,0,1-.63-.62l3.08-25H223.1L220,28.2a.67.67,0,0,1-.67.62h-2.61A.57.57,0,0,1,216.12,28.2Z"/><path d="M264.91,18.6c-.89,7.22-3.23,10.73-10.33,10.73a21.75,21.75,0,0,1-5.73-.74l.15,2.34-.62,5a.68.68,0,0,1-.59.59l-2.61.54c-.35.08-.55-.19-.51-.54l3-24.3c.19-1.72.5-2.38,2.49-3.08A26.65,26.65,0,0,1,258,7.84c2.65,0,4.37.58,5.5,1.68,1.29,1.24,1.72,3.16,1.72,5.53A28.46,28.46,0,0,1,264.91,18.6Zm-4.17-6.47c-.74-1.21-2.11-1.44-4-1.44a26.48,26.48,0,0,0-5.38.85L249.59,26a18.65,18.65,0,0,0,4.95.62c4.25,0,5.89-1.87,6.63-8a26.88,26.88,0,0,0,.23-3.27A6.18,6.18,0,0,0,260.74,12.13Z"/><path d="M286.5,14.59l-1.25,10.18c-.35,2.77-1.09,3.39-3.86,4a24.33,24.33,0,0,1-5.19.55,13.53,13.53,0,0,1-5.81-.9A4.56,4.56,0,0,1,267.85,24a10.08,10.08,0,0,1,.78-3.86c1.25-2.65,3.71-3,6.67-3.43l7.49-1.21a23.94,23.94,0,0,0,.27-2.73,1.63,1.63,0,0,0-1.13-1.64,9.58,9.58,0,0,0-3.35-.39,32.78,32.78,0,0,0-7.06,1.06,3.5,3.5,0,0,1-.43.08.34.34,0,0,1-.35-.32l-.16-2A.53.53,0,0,1,271,9a32.89,32.89,0,0,1,8.43-1.17c2.81,0,4.56.39,5.65,1.05a3.26,3.26,0,0,1,1.64,3C286.73,12.6,286.57,14,286.5,14.59ZM272.22,21a5.18,5.18,0,0,0-.58,2.54,2.69,2.69,0,0,0,1,2.22c1,.82,2.58.9,4,.9a16.76,16.76,0,0,0,4.87-.66l1-7.73-7.06,1.13C274.05,19.58,272.92,19.77,272.22,21Z"/><path d="M290.05,20.87a18.67,18.67,0,0,1,2.3-9.17c1.95-3.2,5.61-3.86,8.85-3.86,5,0,8.39,1.6,8.39,6,0,3-1.72,4.68-4.8,5v.62a3.89,3.89,0,0,1,3.24,4c0,4.29-4,5.89-8.86,5.89C290.83,29.33,290.05,24.88,290.05,20.87Zm14.51,2.22c0-2.3-1.33-2.93-4.61-2.93-.62,0-1.32,0-2.1.08l-4.14.2a7.41,7.41,0,0,0-.07,1.09c0,3.31.58,5.15,5.85,5.15C302.45,26.68,304.56,25.7,304.56,23.09ZM294,18l4.68-.24c4.76-.23,7.29-.89,7.29-4.05,0-2.26-1.79-3.16-5.11-3.16C295.55,10.57,294.34,14.08,294,18Z"/><path d="M330.68,18.6c-.7,5.89-2.3,10.73-10.57,10.73-3.27,0-5.3-.74-6.51-2s-1.72-3.24-1.72-5.42a23.24,23.24,0,0,1,.28-3.32c.7-5.92,2.3-10.76,10.57-10.76,3.15,0,5.18.7,6.43,1.91S331,13,331,15.21A26.21,26.21,0,0,1,330.68,18.6Zm-4.6-7a5.3,5.3,0,0,0-3.67-1c-5.3,0-5.89,3.08-6.51,8a27.39,27.39,0,0,0-.27,3.4,4.77,4.77,0,0,0,.93,3.39,5.24,5.24,0,0,0,3.86,1.17c5.31,0,5.89-3.08,6.52-8a32.52,32.52,0,0,0,.27-3.51A4.41,4.41,0,0,0,326.08,11.62Z"/></g></g></svg>